<svg width="171" height="56" viewBox="0 0 171 56" fill="none" xmlns="http://www.w3.org/2000/svg">
<mask id="mask0" mask-type="alpha" maskUnits="userSpaceOnUse" x="0" y="0" width="67" height="56">
<path d="M21.6364 13.9718C16.489 3.73783 12.0332 0 0 0C3.67737 11.0395 10.0587 14.1782 21.7399 14.1782C21.7298 14.158 21.7197 14.1377 21.7096 14.1176L22.7263 12.8102C24.9762 9.91761 25.7776 6.15403 24.9015 2.59564L24.3588 0.391192L23.0085 2.28706C20.9324 5.2018 20.2686 8.89228 21.1991 12.3477L21.6364 13.9718Z" fill="#C4C4C4"/>
<path d="M66.0018 1.89042V56H50.9586V29.5556C50.9586 28.9147 50.0622 28.7657 49.8549 29.3721L42.7867 50.0451C41.569 53.6067 38.2214 56 34.4573 56C30.693 56 27.3453 53.6065 26.1277 50.0445L18.9826 29.1424C18.7753 28.5361 17.8789 28.685 17.8789 29.3259V56H2.83563V16.9193L16.6149 18.462C23.6983 19.255 29.7335 23.9648 32.2241 30.6432L34.0826 35.6267C34.2657 36.1175 34.9594 36.119 35.1446 35.6289L45.1181 9.22495C46.7853 4.81116 51.0108 1.89042 55.7289 1.89042H66.0018Z" fill="#C4C4C4"/>
</mask>
<g mask="url(#mask0)">
<rect x="-2.45752" y="-3.59229" width="71.269" height="63.1401" fill="#FFD233"/>
<path fill-rule="evenodd" clip-rule="evenodd" d="M0 12.2483L2.88314 11.5816C5.76629 10.9149 11.5326 9.58154 17.2989 9.58154C23.0652 9.58154 28.8314 10.9149 34.5977 12.415C40.4527 12.7752 45.0648 14.8348 51.8966 15.1195C59.02 15.4164 67.0664 14.372 69.1955 13.3075C71.3246 12.2429 69.1955 52.1634 69.1955 52.1634H66.3123C63.4292 52.1634 57.6629 52.1634 51.8966 52.1634C46.1303 52.1634 40.364 52.1634 34.5977 52.1634C28.8314 52.1634 23.0652 52.1634 17.2989 52.1634C11.5326 52.1634 5.76629 52.1634 2.88314 52.1634H0V12.2483Z" fill="#FFBC21"/>
<path fill-rule="evenodd" clip-rule="evenodd" d="M0 20.5853L4.06441 19.9164C8.12882 19.2475 16.2576 17.9097 24.3865 17.9097C32.5153 17.9097 40.6441 19.2475 48.7729 20.7526C56.9017 22.2576 65.0306 23.9299 73.1594 24.7661C81.2882 25.6022 89.417 25.6022 93.4814 25.6022H97.5458V60.6332H93.4814C89.417 60.6332 81.2882 60.6332 73.1594 60.6332C65.0306 60.6332 56.9017 60.6332 48.7729 60.6332C40.6441 60.6332 32.5153 60.6332 24.3865 60.6332C16.2576 60.6332 8.12882 60.6332 4.06441 60.6332H0V20.5853Z" fill="#D4C300"/>
<path fill-rule="evenodd" clip-rule="evenodd" d="M-1.68504 40.724L2.0473 38.7532C5.77965 36.7824 13.2443 32.8409 21.1898 31.1239C29.1352 29.4069 37.5613 29.9144 46.0475 30.7C54.5338 31.4856 63.0801 32.5492 71.3259 32.2226C79.5718 31.8959 87.5172 30.1789 91.4899 29.3204L95.4626 28.4619L108.05 86.7106L104.077 87.5691C100.105 88.4276 92.1594 90.1446 84.2139 91.8616C76.2685 93.5786 68.3231 95.2956 60.3777 97.0126C52.4323 98.7296 44.4869 100.447 36.5415 102.164C28.5961 103.881 20.6506 105.598 16.6779 106.456L12.7052 107.315L-1.68504 40.724Z" fill="#ADBD20"/>
<path fill-rule="evenodd" clip-rule="evenodd" d="M-4.89404 62.5017L-2.24926 58.8983C0.39552 55.2949 5.68508 48.0881 12.7857 44.1309C19.8863 40.1737 28.7979 39.4662 37.9359 39.1649C47.0739 38.8636 56.4383 38.9685 64.6708 37.0424C72.9033 35.1162 80.0039 31.159 83.5542 29.1805L87.1045 27.2019L134.526 112.293L130.976 114.272C127.426 116.25 120.325 120.208 113.224 124.165C106.124 128.122 99.0231 132.079 91.9225 136.036C84.8219 139.994 77.7213 143.951 70.6208 147.908C63.5202 151.865 56.4196 155.822 52.8693 157.801L49.319 159.779L-4.89404 62.5017Z" fill="#77B54E"/>
</g>
<path d="M97.427 7.45V25H93.152V14.475L89.227 25H85.777L81.827 14.45V25H77.552V7.45H82.602L87.527 19.6L92.402 7.45H97.427ZM99.1512 18C99.1512 16.5667 99.4178 15.3083 99.9512 14.225C100.501 13.1417 101.243 12.3083 102.176 11.725C103.11 11.1417 104.151 10.85 105.301 10.85C106.285 10.85 107.143 11.05 107.876 11.45C108.626 11.85 109.201 12.375 109.601 13.025V11.05H113.876V25H109.601V23.025C109.185 23.675 108.601 24.2 107.851 24.6C107.118 25 106.26 25.2 105.276 25.2C104.143 25.2 103.11 24.9083 102.176 24.325C101.243 23.725 100.501 22.8833 99.9512 21.8C99.4178 20.7 99.1512 19.4333 99.1512 18ZM109.601 18.025C109.601 16.9583 109.301 16.1167 108.701 15.5C108.118 14.8833 107.401 14.575 106.551 14.575C105.701 14.575 104.976 14.8833 104.376 15.5C103.793 16.1 103.501 16.9333 103.501 18C103.501 19.0667 103.793 19.9167 104.376 20.55C104.976 21.1667 105.701 21.475 106.551 21.475C107.401 21.475 108.118 21.1667 108.701 20.55C109.301 19.9333 109.601 19.0917 109.601 18.025ZM118.619 9.6C117.869 9.6 117.252 9.38333 116.769 8.95C116.302 8.5 116.069 7.95 116.069 7.3C116.069 6.63333 116.302 6.08333 116.769 5.65C117.252 5.2 117.869 4.975 118.619 4.975C119.352 4.975 119.952 5.2 120.419 5.65C120.902 6.08333 121.144 6.63333 121.144 7.3C121.144 7.95 120.902 8.5 120.419 8.95C119.952 9.38333 119.352 9.6 118.619 9.6ZM120.744 11.05V25H116.469V11.05H120.744ZM127.617 13.025C128.034 12.375 128.609 11.85 129.342 11.45C130.075 11.05 130.934 10.85 131.917 10.85C133.067 10.85 134.109 11.1417 135.042 11.725C135.975 12.3083 136.709 13.1417 137.242 14.225C137.792 15.3083 138.067 16.5667 138.067 18C138.067 19.4333 137.792 20.7 137.242 21.8C136.709 22.8833 135.975 23.725 135.042 24.325C134.109 24.9083 133.067 25.2 131.917 25.2C130.95 25.2 130.092 25 129.342 24.6C128.609 24.2 128.034 23.6833 127.617 23.05V31.65H123.342V11.05H127.617V13.025ZM133.717 18C133.717 16.9333 133.417 16.1 132.817 15.5C132.234 14.8833 131.509 14.575 130.642 14.575C129.792 14.575 129.067 14.8833 128.467 15.5C127.884 16.1167 127.592 16.9583 127.592 18.025C127.592 19.0917 127.884 19.9333 128.467 20.55C129.067 21.1667 129.792 21.475 130.642 21.475C131.492 21.475 132.217 21.1667 132.817 20.55C133.417 19.9167 133.717 19.0667 133.717 18ZM146.16 25.2C144.793 25.2 143.56 24.9083 142.46 24.325C141.376 23.7417 140.518 22.9083 139.885 21.825C139.268 20.7417 138.96 19.475 138.96 18.025C138.96 16.5917 139.276 15.3333 139.91 14.25C140.543 13.15 141.41 12.3083 142.51 11.725C143.61 11.1417 144.843 10.85 146.21 10.85C147.576 10.85 148.81 11.1417 149.91 11.725C151.01 12.3083 151.876 13.15 152.51 14.25C153.143 15.3333 153.46 16.5917 153.46 18.025C153.46 19.4583 153.135 20.725 152.485 21.825C151.851 22.9083 150.976 23.7417 149.86 24.325C148.76 24.9083 147.526 25.2 146.16 25.2ZM146.16 21.5C146.976 21.5 147.668 21.2 148.235 20.6C148.818 20 149.11 19.1417 149.11 18.025C149.11 16.9083 148.826 16.05 148.26 15.45C147.71 14.85 147.026 14.55 146.21 14.55C145.376 14.55 144.685 14.85 144.135 15.45C143.585 16.0333 143.31 16.8917 143.31 18.025C143.31 19.1417 143.576 20 144.11 20.6C144.66 21.2 145.343 21.5 146.16 21.5ZM89.202 37C88.8853 36.4167 88.427 35.975 87.827 35.675C87.2436 35.3583 86.552 35.2 85.752 35.2C84.3686 35.2 83.2603 35.6583 82.427 36.575C81.5936 37.475 81.177 38.6833 81.177 40.2C81.177 41.8167 81.6103 43.0833 82.477 44C83.3603 44.9 84.5686 45.35 86.102 45.35C87.152 45.35 88.0353 45.0833 88.752 44.55C89.4853 44.0167 90.0186 43.25 90.352 42.25H84.927V39.1H94.227V43.075C93.9103 44.1417 93.3686 45.1333 92.602 46.05C91.852 46.9667 90.8936 47.7083 89.727 48.275C88.5603 48.8417 87.2436 49.125 85.777 49.125C84.0436 49.125 82.4936 48.75 81.127 48C79.777 47.2333 78.7186 46.175 77.952 44.825C77.202 43.475 76.827 41.9333 76.827 40.2C76.827 38.4667 77.202 36.925 77.952 35.575C78.7186 34.2083 79.777 33.15 81.127 32.4C82.477 31.6333 84.0186 31.25 85.752 31.25C87.852 31.25 89.6186 31.7583 91.052 32.775C92.502 33.7917 93.4603 35.2 93.927 37H89.202ZM100.37 37.375C100.87 36.6083 101.495 36.0083 102.245 35.575C102.995 35.125 103.828 34.9 104.745 34.9V39.425H103.57C102.503 39.425 101.703 39.6583 101.17 40.125C100.637 40.575 100.37 41.375 100.37 42.525V49H96.0949V35.05H100.37V37.375ZM105.438 42C105.438 40.5667 105.705 39.3083 106.238 38.225C106.788 37.1417 107.53 36.3083 108.463 35.725C109.397 35.1417 110.438 34.85 111.588 34.85C112.572 34.85 113.43 35.05 114.163 35.45C114.913 35.85 115.488 36.375 115.888 37.025V35.05H120.163V49H115.888V47.025C115.472 47.675 114.888 48.2 114.138 48.6C113.405 49 112.547 49.2 111.563 49.2C110.43 49.2 109.397 48.9083 108.463 48.325C107.53 47.725 106.788 46.8833 106.238 45.8C105.705 44.7 105.438 43.4333 105.438 42ZM115.888 42.025C115.888 40.9583 115.588 40.1167 114.988 39.5C114.405 38.8833 113.688 38.575 112.838 38.575C111.988 38.575 111.263 38.8833 110.663 39.5C110.08 40.1 109.788 40.9333 109.788 42C109.788 43.0667 110.08 43.9167 110.663 44.55C111.263 45.1667 111.988 45.475 112.838 45.475C113.688 45.475 114.405 45.1667 114.988 44.55C115.588 43.9333 115.888 43.0917 115.888 42.025ZM131.256 34.9C132.889 34.9 134.189 35.4333 135.156 36.5C136.139 37.55 136.631 39 136.631 40.85V49H132.381V41.425C132.381 40.4917 132.139 39.7667 131.656 39.25C131.173 38.7333 130.523 38.475 129.706 38.475C128.889 38.475 128.239 38.7333 127.756 39.25C127.273 39.7667 127.031 40.4917 127.031 41.425V49H122.756V35.05H127.031V36.9C127.464 36.2833 128.048 35.8 128.781 35.45C129.514 35.0833 130.339 34.9 131.256 34.9ZM138.252 42C138.252 40.5667 138.518 39.3083 139.052 38.225C139.602 37.1417 140.343 36.3083 141.277 35.725C142.21 35.1417 143.252 34.85 144.402 34.85C145.318 34.85 146.152 35.0417 146.902 35.425C147.668 35.8083 148.268 36.325 148.702 36.975V30.5H152.977V49H148.702V47C148.302 47.6667 147.727 48.2 146.977 48.6C146.243 49 145.385 49.2 144.402 49.2C143.252 49.2 142.21 48.9083 141.277 48.325C140.343 47.725 139.602 46.8833 139.052 45.8C138.518 44.7 138.252 43.4333 138.252 42ZM148.702 42.025C148.702 40.9583 148.402 40.1167 147.802 39.5C147.218 38.8833 146.502 38.575 145.652 38.575C144.802 38.575 144.077 38.8833 143.477 39.5C142.893 40.1 142.602 40.9333 142.602 42C142.602 43.0667 142.893 43.9167 143.477 44.55C144.077 45.1667 144.802 45.475 145.652 45.475C146.502 45.475 147.218 45.1667 147.802 44.55C148.402 43.9333 148.702 43.0917 148.702 42.025ZM168.72 41.8C168.72 42.2 168.695 42.6167 168.645 43.05H158.97C159.036 43.9167 159.311 44.5833 159.795 45.05C160.295 45.5 160.903 45.725 161.62 45.725C162.686 45.725 163.428 45.275 163.845 44.375H168.395C168.161 45.2917 167.736 46.1167 167.12 46.85C166.52 47.5833 165.761 48.1583 164.845 48.575C163.928 48.9917 162.903 49.2 161.77 49.2C160.403 49.2 159.186 48.9083 158.12 48.325C157.053 47.7417 156.22 46.9083 155.62 45.825C155.02 44.7417 154.72 43.475 154.72 42.025C154.72 40.575 155.011 39.3083 155.595 38.225C156.195 37.1417 157.028 36.3083 158.095 35.725C159.161 35.1417 160.386 34.85 161.77 34.85C163.12 34.85 164.32 35.1333 165.37 35.7C166.42 36.2667 167.236 37.075 167.82 38.125C168.42 39.175 168.72 40.4 168.72 41.8ZM164.345 40.675C164.345 39.9417 164.095 39.3583 163.595 38.925C163.095 38.4917 162.47 38.275 161.72 38.275C161.003 38.275 160.395 38.4833 159.895 38.9C159.411 39.3167 159.111 39.9083 158.995 40.675H164.345Z" fill="white"/>
</svg>
